<?xml version="1.0" encoding="UTF-8"?>
<svg xmlns="http://www.w3.org/2000/svg" xmlns:xlink="http://www.w3.org/1999/xlink" width="1080" height="1920" viewBox="0 0 1080 1920">
<defs>
<g>
<g id="glyph-0-0">
<path d="M 3.683594 0.175781 C 2.980469 0.175781 2.382812 0.101562 1.890625 -0.0429688 C 1.398438 -0.1875 0.933594 -0.367188 0.5 -0.578125 L 0.5 -2.195312 L 0.59375 -2.195312 C 1.019531 -1.792969 1.5 -1.484375 2.039062 -1.265625 C 2.574219 -1.046875 3.09375 -0.9375 3.59375 -0.9375 C 4.304688 -0.9375 4.84375 -1.085938 5.207031 -1.382812 C 5.574219 -1.679688 5.753906 -2.074219 5.753906 -2.558594 C 5.753906 -2.945312 5.660156 -3.257812 5.46875 -3.503906 C 5.277344 -3.746094 4.972656 -3.925781 4.558594 -4.042969 C 4.257812 -4.128906 3.984375 -4.203125 3.738281 -4.257812 C 3.488281 -4.3125 3.179688 -4.390625 2.804688 -4.484375 C 2.472656 -4.574219 2.171875 -4.683594 1.90625 -4.816406 C 1.644531 -4.953125 1.410156 -5.128906 1.203125 -5.34375 C 1.003906 -5.558594 0.847656 -5.808594 0.738281 -6.097656 C 0.628906 -6.386719 0.574219 -6.71875 0.574219 -7.097656 C 0.574219 -7.882812 0.878906 -8.539062 1.492188 -9.070312 C 2.101562 -9.605469 2.882812 -9.871094 3.835938 -9.871094 C 4.378906 -9.871094 4.890625 -9.816406 5.375 -9.707031 C 5.859375 -9.597656 6.304688 -9.445312 6.71875 -9.246094 L 6.71875 -7.703125 L 6.621094 -7.703125 C 6.3125 -7.984375 5.917969 -8.230469 5.4375 -8.441406 C 4.953125 -8.652344 4.449219 -8.757812 3.917969 -8.757812 C 3.320312 -8.757812 2.835938 -8.617188 2.46875 -8.335938 C 2.097656 -8.054688 1.914062 -7.6875 1.914062 -7.234375 C 1.914062 -6.820312 2.023438 -6.492188 2.238281 -6.25 C 2.457031 -6.007812 2.769531 -5.828125 3.183594 -5.714844 C 3.457031 -5.640625 3.792969 -5.558594 4.1875 -5.464844 C 4.582031 -5.371094 4.910156 -5.285156 5.167969 -5.207031 C 5.835938 -5.003906 6.324219 -4.695312 6.632812 -4.285156 C 6.941406 -3.871094 7.097656 -3.363281 7.097656 -2.761719 C 7.097656 -2.382812 7.019531 -2.007812 6.863281 -1.640625 C 6.710938 -1.273438 6.496094 -0.960938 6.21875 -0.703125 C 5.90625 -0.421875 5.550781 -0.203125 5.160156 -0.0507812 C 4.765625 0.101562 4.273438 0.175781 3.683594 0.175781 Z "/>
</g>
<g id="glyph-0-1">
<path d="M 4.367188 0.203125 C 3.800781 0.203125 3.304688 0.125 2.878906 -0.0234375 C 2.453125 -0.171875 2.089844 -0.394531 1.789062 -0.691406 C 1.453125 -1.027344 1.214844 -1.433594 1.074219 -1.902344 C 0.933594 -2.375 0.867188 -2.957031 0.867188 -3.644531 L 0.867188 -9.695312 L 2.15625 -9.695312 L 2.15625 -3.644531 C 2.15625 -3.199219 2.183594 -2.820312 2.238281 -2.515625 C 2.296875 -2.210938 2.40625 -1.9375 2.570312 -1.691406 C 2.746094 -1.433594 2.980469 -1.234375 3.277344 -1.101562 C 3.574219 -0.964844 3.9375 -0.898438 4.367188 -0.898438 C 4.773438 -0.898438 5.128906 -0.964844 5.441406 -1.101562 C 5.753906 -1.234375 6 -1.433594 6.171875 -1.691406 C 6.332031 -1.941406 6.441406 -2.214844 6.5 -2.511719 C 6.558594 -2.8125 6.589844 -3.179688 6.589844 -3.613281 L 6.589844 -9.695312 L 7.878906 -9.695312 L 7.878906 -3.644531 C 7.878906 -2.972656 7.808594 -2.394531 7.671875 -1.914062 C 7.535156 -1.433594 7.296875 -1.023438 6.953125 -0.691406 C 6.644531 -0.390625 6.285156 -0.167969 5.875 -0.0195312 C 5.464844 0.128906 4.964844 0.203125 4.367188 0.203125 Z "/>
</g>
<g id="glyph-0-2">
<path d="M 7.558594 -2.976562 C 7.558594 -2.492188 7.46875 -2.066406 7.285156 -1.699219 C 7.101562 -1.332031 6.859375 -1.027344 6.550781 -0.789062 C 6.183594 -0.5 5.792969 -0.296875 5.378906 -0.179688 C 4.960938 -0.0585938 4.421875 0 3.761719 0 L 0.984375 0 L 0.984375 -9.695312 L 3.554688 -9.695312 C 4.246094 -9.695312 4.761719 -9.671875 5.105469 -9.625 C 5.453125 -9.578125 5.785156 -9.472656 6.101562 -9.304688 C 6.449219 -9.117188 6.703125 -8.871094 6.863281 -8.570312 C 7.023438 -8.269531 7.101562 -7.914062 7.101562 -7.507812 C 7.101562 -7.050781 6.980469 -6.644531 6.742188 -6.28125 C 6.5 -5.921875 6.167969 -5.640625 5.742188 -5.4375 L 5.742188 -5.382812 C 6.320312 -5.226562 6.765625 -4.941406 7.082031 -4.527344 C 7.398438 -4.113281 7.558594 -3.597656 7.558594 -2.976562 M 5.761719 -7.324219 C 5.761719 -7.558594 5.722656 -7.761719 5.644531 -7.933594 C 5.566406 -8.105469 5.441406 -8.238281 5.265625 -8.339844 C 5.058594 -8.457031 4.828125 -8.527344 4.570312 -8.554688 C 4.3125 -8.582031 3.960938 -8.59375 3.507812 -8.59375 L 2.273438 -8.59375 L 2.273438 -5.753906 L 3.738281 -5.753906 C 4.140625 -5.753906 4.4375 -5.777344 4.628906 -5.816406 C 4.820312 -5.859375 5.015625 -5.945312 5.222656 -6.074219 C 5.417969 -6.199219 5.554688 -6.363281 5.636719 -6.570312 C 5.71875 -6.773438 5.761719 -7.023438 5.761719 -7.324219 M 6.21875 -2.921875 C 6.21875 -3.289062 6.164062 -3.589844 6.0625 -3.824219 C 5.957031 -4.0625 5.746094 -4.261719 5.429688 -4.425781 C 5.226562 -4.535156 5.003906 -4.605469 4.761719 -4.636719 C 4.523438 -4.664062 4.179688 -4.679688 3.738281 -4.679688 L 2.273438 -4.679688 L 2.273438 -1.101562 L 3.320312 -1.101562 C 3.882812 -1.101562 4.328125 -1.125 4.65625 -1.179688 C 4.980469 -1.230469 5.265625 -1.339844 5.515625 -1.511719 C 5.757812 -1.679688 5.933594 -1.871094 6.046875 -2.085938 C 6.160156 -2.300781 6.21875 -2.582031 6.21875 -2.921875 Z "/>
</g>
<g id="glyph-0-3">
<path d="M 4.773438 0.175781 C 4.136719 0.175781 3.554688 0.0703125 3.023438 -0.144531 C 2.492188 -0.355469 2.035156 -0.671875 1.648438 -1.09375 C 1.261719 -1.515625 0.960938 -2.039062 0.75 -2.667969 C 0.535156 -3.296875 0.429688 -4.019531 0.429688 -4.835938 C 0.429688 -5.648438 0.53125 -6.355469 0.738281 -6.960938 C 0.945312 -7.5625 1.246094 -8.089844 1.640625 -8.535156 C 2.027344 -8.96875 2.484375 -9.300781 3.015625 -9.527344 C 3.542969 -9.757812 4.136719 -9.871094 4.792969 -9.871094 C 5.117188 -9.871094 5.421875 -9.847656 5.707031 -9.796875 C 5.992188 -9.75 6.253906 -9.691406 6.496094 -9.617188 C 6.707031 -9.550781 6.917969 -9.46875 7.136719 -9.371094 C 7.359375 -9.273438 7.574219 -9.167969 7.785156 -9.050781 L 7.785156 -7.492188 L 7.683594 -7.492188 C 7.570312 -7.597656 7.425781 -7.722656 7.246094 -7.871094 C 7.066406 -8.019531 6.851562 -8.164062 6.59375 -8.308594 C 6.347656 -8.441406 6.078125 -8.550781 5.789062 -8.640625 C 5.496094 -8.726562 5.160156 -8.769531 4.777344 -8.769531 C 4.367188 -8.769531 3.976562 -8.683594 3.605469 -8.515625 C 3.238281 -8.347656 2.914062 -8.097656 2.636719 -7.765625 C 2.363281 -7.4375 2.152344 -7.023438 2 -6.523438 C 1.847656 -6.023438 1.769531 -5.460938 1.769531 -4.835938 C 1.769531 -4.171875 1.851562 -3.601562 2.011719 -3.121094 C 2.171875 -2.640625 2.390625 -2.238281 2.667969 -1.90625 C 2.9375 -1.585938 3.253906 -1.34375 3.621094 -1.179688 C 3.984375 -1.019531 4.371094 -0.9375 4.777344 -0.9375 C 5.152344 -0.9375 5.496094 -0.984375 5.8125 -1.074219 C 6.128906 -1.164062 6.414062 -1.28125 6.660156 -1.417969 C 6.898438 -1.554688 7.105469 -1.691406 7.277344 -1.832031 C 7.453125 -1.972656 7.589844 -2.09375 7.6875 -2.195312 L 7.785156 -2.195312 L 7.785156 -0.65625 C 7.574219 -0.558594 7.371094 -0.460938 7.183594 -0.371094 C 6.996094 -0.28125 6.765625 -0.191406 6.496094 -0.105469 C 6.214844 -0.0117188 5.953125 0.0546875 5.710938 0.105469 C 5.472656 0.152344 5.160156 0.175781 4.773438 0.175781 Z "/>
</g>
<g id="glyph-0-4">
<path d="M 8.488281 0 L 6.816406 0 L 3.742188 -3.855469 L 2.273438 -3.855469 L 2.273438 0 L 0.984375 0 L 0.984375 -9.695312 L 3.484375 -9.695312 C 4.039062 -9.695312 4.503906 -9.664062 4.878906 -9.601562 C 5.253906 -9.542969 5.613281 -9.402344 5.949219 -9.179688 C 6.289062 -8.960938 6.558594 -8.683594 6.753906 -8.339844 C 6.953125 -7.996094 7.050781 -7.570312 7.050781 -7.0625 C 7.050781 -6.351562 6.871094 -5.757812 6.511719 -5.28125 C 6.148438 -4.800781 5.660156 -4.449219 5.039062 -4.21875 L 8.488281 0 M 5.703125 -6.964844 C 5.703125 -7.25 5.652344 -7.5 5.554688 -7.71875 C 5.453125 -7.9375 5.300781 -8.117188 5.089844 -8.253906 C 4.910156 -8.375 4.695312 -8.460938 4.453125 -8.511719 C 4.210938 -8.5625 3.910156 -8.585938 3.546875 -8.585938 L 2.273438 -8.585938 L 2.273438 -4.929688 L 3.40625 -4.929688 C 3.773438 -4.929688 4.105469 -4.960938 4.402344 -5.027344 C 4.695312 -5.089844 4.949219 -5.226562 5.15625 -5.429688 C 5.34375 -5.613281 5.480469 -5.828125 5.570312 -6.082031 C 5.660156 -6.332031 5.703125 -6.628906 5.703125 -6.964844 Z "/>
</g>
<g id="glyph-0-5">
<path d="M 4.367188 0 L 0.605469 0 L 0.605469 -0.988281 L 1.84375 -0.988281 L 1.84375 -8.703125 L 0.605469 -8.703125 L 0.605469 -9.695312 L 4.367188 -9.695312 L 4.367188 -8.703125 L 3.132812 -8.703125 L 3.132812 -0.988281 L 4.367188 -0.988281 Z "/>
</g>
<g id="glyph-0-6">
<path d="M 0.984375 0 L 0.984375 -9.695312 L 7.042969 -9.695312 L 7.042969 -8.546875 L 2.273438 -8.546875 L 2.273438 -5.890625 L 6.71875 -5.890625 L 6.71875 -4.746094 L 2.273438 -4.746094 L 2.273438 -1.144531 L 7.042969 -1.144531 L 7.042969 0 Z "/>
</g>
<g id="glyph-0-7">
<path d="M 3.136719 -5.417969 L 1.582031 -5.417969 L 1.582031 -7.273438 L 3.136719 -7.273438 L 3.136719 -5.417969 M 3.136719 0 L 1.582031 0 L 1.582031 -1.855469 L 3.136719 -1.855469 Z "/>
</g>
<g id="glyph-0-8">
</g>
<g id="glyph-0-9">
<path d="M 9.289062 0 L 8 0 L 8 -8.351562 L 5.476562 -2.667969 L 4.695312 -2.667969 L 2.1875 -8.351562 L 2.1875 0 L 0.984375 0 L 0.984375 -9.695312 L 2.742188 -9.695312 L 5.164062 -4.296875 L 7.5 -9.695312 L 9.289062 -9.695312 Z "/>
</g>
<g id="glyph-0-10">
<path d="M -0.0664062 0 L 3.203125 -9.695312 L 4.792969 -9.695312 L 8.058594 0 L 6.699219 0 L 5.820312 -2.707031 L 2.117188 -2.707031 L 1.238281 0 L -0.0664062 0 M 5.460938 -3.808594 L 3.964844 -8.378906 L 2.472656 -3.808594 Z "/>
</g>
<g id="glyph-0-11">
<path d="M 7.839844 -8.582031 C 8.207031 -8.15625 8.492188 -7.628906 8.699219 -7 C 8.902344 -6.371094 9.003906 -5.652344 9.003906 -4.84375 C 9.003906 -4.058594 8.902344 -3.347656 8.703125 -2.714844 C 8.503906 -2.082031 8.214844 -1.550781 7.839844 -1.121094 C 7.445312 -0.667969 6.980469 -0.335938 6.453125 -0.121094 C 5.925781 0.09375 5.347656 0.203125 4.714844 0.203125 C 4.058594 0.203125 3.46875 0.0898438 2.941406 -0.128906 C 2.417969 -0.351562 1.964844 -0.679688 1.589844 -1.121094 C 1.214844 -1.550781 0.929688 -2.078125 0.730469 -2.707031 C 0.53125 -3.335938 0.429688 -4.050781 0.429688 -4.84375 C 0.429688 -5.660156 0.53125 -6.375 0.730469 -6.992188 C 0.933594 -7.609375 1.222656 -8.136719 1.59375 -8.582031 C 1.96875 -9.011719 2.417969 -9.335938 2.945312 -9.5625 C 3.472656 -9.785156 4.0625 -9.894531 4.714844 -9.894531 C 5.375 -9.894531 5.96875 -9.78125 6.496094 -9.550781 C 7.027344 -9.320312 7.472656 -8.996094 7.839844 -8.582031 M 7.664062 -4.84375 C 7.664062 -5.484375 7.59375 -6.054688 7.453125 -6.550781 C 7.316406 -7.042969 7.121094 -7.453125 6.867188 -7.78125 C 6.613281 -8.113281 6.304688 -8.363281 5.941406 -8.53125 C 5.578125 -8.699219 5.171875 -8.78125 4.71875 -8.78125 C 4.25 -8.78125 3.84375 -8.703125 3.492188 -8.539062 C 3.144531 -8.375 2.835938 -8.121094 2.566406 -7.78125 C 2.308594 -7.449219 2.113281 -7.035156 1.976562 -6.535156 C 1.839844 -6.039062 1.769531 -5.472656 1.769531 -4.84375 C 1.769531 -3.570312 2.039062 -2.597656 2.570312 -1.921875 C 3.105469 -1.25 3.820312 -0.910156 4.71875 -0.910156 C 5.617188 -0.910156 6.332031 -1.25 6.863281 -1.921875 C 7.398438 -2.597656 7.664062 -3.570312 7.664062 -4.84375 Z "/>
</g>
<g id="glyph-0-12">
<path d="M 7.101562 -6.769531 C 7.101562 -6.351562 7.027344 -5.953125 6.878906 -5.574219 C 6.726562 -5.199219 6.519531 -4.878906 6.257812 -4.617188 C 5.921875 -4.285156 5.53125 -4.035156 5.078125 -3.867188 C 4.625 -3.699219 4.054688 -3.613281 3.367188 -3.613281 L 2.273438 -3.613281 L 2.273438 0 L 0.984375 0 L 0.984375 -9.695312 L 3.417969 -9.695312 C 3.992188 -9.695312 4.480469 -9.644531 4.882812 -9.550781 C 5.285156 -9.457031 5.640625 -9.300781 5.949219 -9.089844 C 6.3125 -8.839844 6.59375 -8.527344 6.796875 -8.148438 C 7 -7.769531 7.101562 -7.308594 7.101562 -6.769531 M 5.761719 -6.738281 C 5.761719 -7.074219 5.703125 -7.363281 5.589844 -7.609375 C 5.472656 -7.859375 5.300781 -8.058594 5.066406 -8.214844 C 4.859375 -8.351562 4.625 -8.445312 4.351562 -8.503906 C 4.082031 -8.558594 3.742188 -8.585938 3.339844 -8.585938 L 2.273438 -8.585938 L 2.273438 -4.714844 L 3.152344 -4.714844 C 3.671875 -4.714844 4.09375 -4.757812 4.414062 -4.839844 C 4.734375 -4.925781 5.003906 -5.074219 5.214844 -5.292969 C 5.40625 -5.488281 5.542969 -5.699219 5.632812 -5.929688 C 5.71875 -6.160156 5.761719 -6.429688 5.761719 -6.738281 Z "/>
</g>
<g id="glyph-0-13">
<path d="M 6.601562 0 L 0.984375 0 L 0.984375 -9.695312 L 2.273438 -9.695312 L 2.273438 -1.144531 L 6.601562 -1.144531 Z "/>
</g>
</g>
</defs>
<g fill="rgb(29.803922%, 39.607843%, 27.058824%)" fill-opacity="1">
<use xlink:href="#glyph-0-0" x="30" y="33.339844"/>
<use xlink:href="#glyph-0-1" x="37" y="33.339844"/>
<use xlink:href="#glyph-0-2" x="46" y="33.339844"/>
<use xlink:href="#glyph-0-0" x="54" y="33.339844"/>
<use xlink:href="#glyph-0-3" x="61" y="33.339844"/>
<use xlink:href="#glyph-0-4" x="69" y="33.339844"/>
<use xlink:href="#glyph-0-5" x="77" y="33.339844"/>
<use xlink:href="#glyph-0-2" x="82" y="33.339844"/>
<use xlink:href="#glyph-0-6" x="90" y="33.339844"/>
<use xlink:href="#glyph-0-7" x="97" y="33.339844"/>
<use xlink:href="#glyph-0-8" x="102" y="33.339844"/>
<use xlink:href="#glyph-0-9" x="106" y="33.339844"/>
<use xlink:href="#glyph-0-10" x="116" y="33.339844"/>
<use xlink:href="#glyph-0-3" x="124" y="33.339844"/>
<use xlink:href="#glyph-0-4" x="132" y="33.339844"/>
<use xlink:href="#glyph-0-11" x="140" y="33.339844"/>
<use xlink:href="#glyph-0-8" x="149" y="33.339844"/>
<use xlink:href="#glyph-0-12" x="153" y="33.339844"/>
<use xlink:href="#glyph-0-1" x="160" y="33.339844"/>
<use xlink:href="#glyph-0-13" x="169" y="33.339844"/>
<use xlink:href="#glyph-0-0" x="176" y="33.339844"/>
<use xlink:href="#glyph-0-6" x="183" y="33.339844"/>
</g>
</svg>
